{"title":"Kiss the Girls *1997*[DVD9][PAL][ENG, POL]","uid":6058424,"size":7799865344,"categoryP":"video","categoryS":"movies_dvdr","magnet":"?xt=urn:btih:7f6310c35cca31f79aea63ac440acea8386454c2&amp;dn=Kiss+the+Girls+%2A1997%2A%5BDVD9%5D%5BPAL%5D%5BENG%2C+POL%5D+&amp;tr=udp%3A%2F%2Ftracker.openbittorrent.com%3A80&amp;tr=udp%3A%2F%2Fopen.demonii.com%3A1337&amp;tr=udp%3A%2F%2Ftracker.coppersurfer.tk%3A6969&amp;tr=udp%3A%2F%2Fexodus.desync.com%3A6969","seeders":0,"leechers":1,"uploader":"albedo040","files":1,"time":1293011246,"description":"Kiss the Girls *1997*[DVD9][PAL][ENG, POL]\n\nGeneral information:\nCountry: USA\nRelease: 10 September 1997 (Deauville Film Festival)\nGenre: Crime, Drama, Mystery, Thriller \nDirector: Gary Fleder\nScreenplay: David Klass, James Patterson (novel)\nOriginal Music: Mark Isham \nCinematography by:Aaron schneider \nDuration: 1h 49mn\nLanguage: English, Polish, Czech, Hungarian, Turkish\nSubtitles: English, Polish, Czech, Hungarian, Turkish, Lithuanian, Latvian, Estonian \nRating: 7.5/10 - 5725 votes\n\nCast:\nMorgan Freeman  ...  Dr. Alex Cross  \nAshley Judd  ...  Dr. Kate McTiernan  \nCary Elwes  ...  Det. Nick Ruskin  \nAlex McArthur  ...  Det. Davey Sikes  \nTony Goldwyn  ...  Dr. William 'Will' Rudolph  \nJay O. Sanders  ...  FBI Agent Kyle Craig  \nBill Nunn  ...  Det. John Sampson  \nBrian Cox  ...  Chief Hatfield, Durham P.D.  \nRichard T. Jones  ...  Seth Samuel  \nRoma Maffia  ...  Dr. Ruocco  \nJeremy Piven  ...  Henry Castillo, LAPD  \nGina Ravera  ...  Naomi Cross  \nWilliam Converse-Roberts  ...  Dr. Wick Sachs  \nHelen Martin  ...  Nana Cross  \nTatyana Ali  ...  Janell Cross (as Tatyana M. Ali)  \n\nPlot:\nPolice hunting for a serial killer are helped when a victim manages to escape for the first time. \n\nSpecifications:\nGeneral\nFormat                           : MPEG-PS\nOverall bit rate                 : 8 493 Kbps\n\nVideo\nFormat                           : MPEG Video\nFormat version                   : Version 2\nFormat profile                   : Main@Main\nFormat settings, BVOP            : Yes\nFormat settings, Matrix          : Default\nFormat settings, GOP             : M=3, N=12\nBit rate mode                    : Variable\nBit rate                         : 7 108 Kbps\nNominal bit rate                 : 9 800 Kbps\nWidth                            : 720 pixels\nHeight                           : 576 pixels\nDisplay aspect ratio             : 16:9\nFrame rate                       : 25.000 fps\nStandard                         : PAL\n\nAudio 1\nFormat                           : AC-3\nFormat/Info                      : Audio Coding 3\nMode extension                   : CM (complete main)\nBit rate mode                    : Constant\nBit rate                         : 448 Kbps\nChannel(s)                       : 6 channels\nChannel positions                : Front: L C R, Side: L R, LFE\nSampling rate                    : 48.0 KHz\nVideo delay                      : -296ms\nStream size                      : 54.0 MiB (5%)\n\nAudio 2-5\nFormat                           : AC-3\nFormat/Info                      : Audio Coding 3\nFormat profile                   : Dolby Digital\nMode extension                   : CM (complete main)\nBit rate mode                    : Constant\nBit rate                         : 192 Kbps\nChannel(s)                       : 2 channels\nChannel positions                : Front: L R\nSampling rate                    : 48.0 KHz\nVideo delay                      : -232ms\nStream size                      : 23.1 MiB (2%)\n\nText \nFormat                           : RLE\nFormat/Info                      : Run-length encoding\n","torrent":{"xt":"urn:btih:7f6310c35cca31f79aea63ac440acea8386454c2","amp;dn":"Kiss+the+Girls+%2A1997%2A%5BDVD9%5D%5BPAL%5D%5BENG%2C+POL%5D+","amp;tr":["udp%3A%2F%2Ftracker.openbittorrent.com%3A80","udp%3A%2F%2Fopen.demonii.com%3A1337","udp%3A%2F%2Ftracker.coppersurfer.tk%3A6969","udp%3A%2F%2Fexodus.desync.com%3A6969"],"infoHash":"7f6310c35cca31f79aea63ac440acea8386454c2","infoHashBuffer":{"type":"Buffer","data":[127,99,16,195,92,202,49,247,154,234,99,172,68,10,206,168,56,100,84,194]},"announce":[],"urlList":[]}}